<?xml version="1.0" standalone="no"?>
<!DOCTYPE svg PUBLIC "-//W3C//DTD SVG 20010904//EN"
 "http://www.w3.org/TR/2001/REC-SVG-20010904/DTD/svg10.dtd">
<svg version="1.0" xmlns="http://www.w3.org/2000/svg"
 width="300.000000pt" height="314.000000pt" viewBox="0 0 300.000000 314.000000"
 preserveAspectRatio="xMidYMid meet">
<metadata>
Created by potrace 1.10, written by Peter Selinger 2001-2011
</metadata>
<g transform="translate(0.000000,314.000000) scale(0.100000,-0.100000)"
fill="#000000" stroke="none">
<path d="M37 2993 c-1 -1 -1 -220 1 -487 l2 -486 485 0 485 0 0 -245 0 -246
-242 1 -243 1 0 -728 0 -728 243 -2 242 -2 0 244 0 245 490 0 490 0 0 -246 0
-245 243 3 242 3 3 728 4 727 -246 0 -246 0 0 245 0 245 485 0 485 0 0 480 c0
264 -1 482 -2 485 -2 3 -220 6 -486 8 l-482 2 0 -487 0 -488 -490 0 -490 0 0
488 0 487 -486 0 c-267 0 -486 -1 -487 -2z m931 -485 l2 -438 -22 -5 c-13 -3
-212 -4 -443 -3 l-420 3 -3 430 c-1 237 0 436 3 443 3 10 97 12 442 10 l438
-3 3 -437z m1950 3 c2 -341 0 -436 -10 -443 -15 -9 -838 -11 -862 -2 -14 5
-16 53 -16 438 0 238 3 436 7 439 3 4 203 6 442 5 l436 -3 3 -434z m-978 -550
c6 -12 10 -102 10 -225 l0 -205 26 -20 c25 -20 39 -21 240 -21 l213 0 3 -302
c2 -167 2 -475 0 -686 l-2 -382 -198 2 -197 3 -5 217 c-5 208 -6 218 -27 237
-22 21 -32 21 -501 21 -471 0 -479 0 -503 -21 -24 -20 -24 -24 -29 -237 l-5
-217 -196 -3 -196 -2 -6 337 c-9 424 -9 996 -1 1017 5 14 34 16 219 16 200 0
214 1 239 21 l26 20 0 213 c0 151 3 215 12 224 9 9 120 12 440 12 412 0 428
-1 438 -19z"/>
</g>
</svg>
